#N canvas 48 46 595 423 12;
#X obj 69 354 dac~ 1 2;
#X obj 69 271 lr_crossover 2000;
#X obj 335 212 dbtorms;
#X obj 185 301 *~ 1;
#X obj 335 188 + 100;
#N canvas 63 98 450 300 delay 0;
#X obj 55 32 inlet~;
#X obj 54 215 outlet~;
#X obj 55 88 delwrite~ \$0-del 10;
#X obj 54 171 delread4~ \$0-del 10;
#X obj 241 34 inlet;
#X obj 54 143 sig~;
#X connect 0 0 2 0;
#X connect 3 0 1 0;
#X connect 4 0 5 0;
#X connect 5 0 3 0;
#X restore 69 302 pd delay;
#X text 67 34 https://en.wikipedia.org/wiki/Linkwitz%E2%80%93Riley_filter;
#X text 67 15 Second-order Linkwitz–Riley crossover (LR2 \, LR-2);
#X obj 69 133 adc~ 1;
#X obj 133 158 snapshot~;
#X obj 236 131 loadbang;
#X msg 236 155 1;
#X obj 185 241 mtof;
#X obj 185 217 * 127;
#X obj 133 133 adc~ 2;
#X obj 335 131 r lf_del @hv_param 0 10 0;
#X obj 335 164 r hf_att @hv_param -100 0 0;
#X obj 133 183 change;
#X obj 327 352 s frq @hv_param;
#X text 324 331 Report frequency;
#X text 68 96 signal;
#X text 133 96 frequency from pot @ ADC;
#X obj 236 181 metro 50;
#X connect 1 0 5 0;
#X connect 1 1 3 0;
#X connect 2 0 3 1;
#X connect 3 0 0 1;
#X connect 4 0 2 0;
#X connect 5 0 0 0;
#X connect 8 0 1 0;
#X connect 9 0 17 0;
#X connect 10 0 11 0;
#X connect 11 0 22 0;
#X connect 12 0 1 1;
#X connect 12 0 18 0;
#X connect 13 0 12 0;
#X connect 14 0 9 0;
#X connect 15 0 5 1;
#X connect 16 0 4 0;
#X connect 17 0 13 0;
#X connect 22 0 9 0;
