#N canvas 94 127 359 277 12;
#X obj 48 203 dac~ 1;
#X obj 48 128 osc~ 433;
#X obj 48 165 *~ 0.01;
#X obj 121 129 dbtorms;
#X obj 122 103 + 100;
#X obj 49 40 r frq @hv_param 10 10000 433;
#X obj 122 70 r vol @hv_param -100 0 -20;
#X connect 1 0 2 0;
#X connect 2 0 0 0;
#X connect 3 0 2 1;
#X connect 4 0 3 0;
#X connect 5 0 1 0;
#X connect 6 0 4 0;
