#N canvas 125 106 545 330 12;
#X obj 74 77 adc~ 1;
#X text 71 29 https://en.wikipedia.org/wiki/Linkwitz%E2%80%93Riley_filter;
#X text 71 10 Second-order Linkwitz–Riley crossover (LR2 \, LR-2);
#X obj 74 268 dac~ 1 2;
#X obj 74 182 lr_crossover 2000;
#X obj 256 190 dbtorms;
#X obj 189 213 *~ 1;
#X obj 256 166 + 100;
#N canvas 63 98 276 284 delay 0;
#X obj 55 32 inlet~;
#X obj 54 215 outlet~;
#X obj 55 88 delwrite~ \$0-del 10;
#X obj 54 171 delread4~ \$0-del 10;
#X obj 159 33 inlet;
#X obj 53 143 sig~;
#X connect 0 0 2 0;
#X connect 3 0 1 0;
#X connect 4 0 5 0;
#X connect 5 0 3 0;
#X restore 74 224 pd delay;
#X obj 145 78 r frq @hv_param 50 10000 2000;
#X obj 180 107 r lf_del @hv_param 0 10 0;
#X obj 256 136 r hf_att @hv_param -100 0 0;
#X connect 0 0 4 0;
#X connect 4 0 8 0;
#X connect 4 1 6 0;
#X connect 5 0 6 1;
#X connect 6 0 3 1;
#X connect 7 0 5 0;
#X connect 8 0 3 0;
#X connect 9 0 4 1;
#X connect 10 0 8 1;
#X connect 11 0 7 0;
