#N canvas 154 119 790 418 12;
#X text 359 62 scipy.signal.butter(2 \, f \, btype='low' \, analog=False \, output='ba' \, fs=fs);
#X text 360 136 scipy.signal.butter(2 \, f \, btype='high' \, analog=False \, output='ba' \, fs=fs);
#X text 358 25 coefficients for Linkwitz-Riley f=2000 Hz @ fs=48000;
#N canvas -165 -1078 588 625 coefs 0;
#X obj 358 98 samplerate~;
#X text 788 158 k;
#X obj 33 20 inlet;
#X text 79 21 frq;
#X obj 36 518 pack 0 0 0 0 0;
#X obj 36 554 outlet;
#X obj 33 44 t f b;
#X obj 34 200 expr 1/(1+sqrt(2)*$f1 + $f1*$f1);
#X obj 104 294 * 2;
#X obj 316 517 pack 0 0 0 0 0;
#X obj 316 553 outlet;
#X obj 34 160 t f f;
#X text 144 518 b1 b2 a0 a1 a2;
#X text 441 518 b1 b2 a0 a1 a2;
#X text 164 539 LP;
#X text 477 544 HP;
#X text 373 127 ita;
#X text 271 199 a0;
#X obj 364 404 expr $f1*$f2*$f2;
#X obj 387 440 expr -$f1*$f2*$f2;
#X obj 36 373 t f f;
#X obj 35 245 t f f;
#X text 204 327 b1;
#X obj 32 128 expr 1 / tan(3.1415926535897932384 * ($f1/$f2));
#X obj 36 326 expr 2*($f2*$f2-1)*$f1;
#X obj 59 412 expr -(1 - sqrt(2)*$f2 + $f2*$f2) * $f1;
#X connect 0 0 23 1;
#X connect 2 0 6 0;
#X connect 4 0 5 0;
#X connect 6 0 23 0;
#X connect 6 1 0 0;
#X connect 7 0 21 0;
#X connect 8 0 19 0;
#X connect 8 0 4 3;
#X connect 9 0 10 0;
#X connect 11 0 7 0;
#X connect 11 1 18 1;
#X connect 11 1 19 1;
#X connect 11 1 24 1;
#X connect 11 1 25 1;
#X connect 18 0 9 4;
#X connect 18 0 9 2;
#X connect 19 0 9 3;
#X connect 20 0 4 0;
#X connect 20 1 9 0;
#X connect 21 0 24 0;
#X connect 21 1 8 0;
#X connect 21 1 18 0;
#X connect 21 1 4 4;
#X connect 21 1 4 2;
#X connect 21 1 25 0;
#X connect 23 0 11 0;
#X connect 24 0 20 0;
#X connect 25 0 9 1;
#X connect 25 0 4 1;
#X restore 226 109 pd coefs;
#X obj 113 250 biquad~;
#X obj 111 312 biquad~;
#X obj 46 313 biquad~;
#X obj 51 24 inlet~;
#X obj 46 351 outlet~;
#X obj 112 352 outlet~;
#X obj 229 23 loadbang;
#X obj 175 59 f \$1;
#X obj 174 83 select 0;
#X obj 176 23 inlet;
#X text 223 128 LP;
#X text 278 128 HP;
#X obj 47 251 biquad~;
#X text 44 370 LP;
#X text 110 373 HP;
#X text 360 251 biquad coefficients: fb1 fb2 ff1 ff2 ff3;
#X text 360 290 ff1 = b0/a0 \, ff2 = b1/a0 \, ff3 = b2/a0;
#X text 359 93 b=[0.01440144 \, 0.0288029 \, 0.01440144] \, a=[ 1 \, -1.63299 \, 0.69059892];
#X text 359 169 b=[ 0.830898 \, -1.6618 \, 0.83089802]) a=[ 1 \, -1.63299 \, 0.69059892];
#X text 359 274 fb1 = -a1/a0 \, fb2 = -a2/a0;
#X connect 3 0 6 0;
#X connect 3 0 16 0;
#X connect 3 1 4 0;
#X connect 3 1 5 0;
#X connect 4 0 5 0;
#X connect 5 0 9 0;
#X connect 6 0 8 0;
#X connect 7 0 4 0;
#X connect 7 0 16 0;
#X connect 10 0 11 0;
#X connect 11 0 12 0;
#X connect 12 1 3 0;
#X connect 13 0 11 0;
#X connect 16 0 6 0;
